<svg width="204" height="114" viewBox="0 0 204 114" fill="none" xmlns="http://www.w3.org/2000/svg">
<path d="M116.5 111.5L103.5 91.25M181 48.5C196.41 43.061 206.891 18.722 192.328 7.14148C189.126 4.59554 184.89 4 180.799 4H150.5M181 48.5C204.582 54.9736 198.659 81.7592 179.838 92.2766C176.763 93.9955 173.197 94.5 169.673 94.5H139.639C139.035 94.5 138.569 93.9693 138.647 93.3707L144.5 48.5M181 48.5H144.5M144.5 48.5L150.5 4M150.5 4L136.004 4C135.687 4 135.389 4.15029 135.2 4.40507L88.9072 66.9498C88.6617 67.2815 88.6452 67.7299 88.8655 68.0787L103.5 91.25M103.5 91.25C70.5 99.5 51.5 76 51.5 52.5C51.5 19.5 73 3.99993 93 4C118 4.00009 130 21.5 130 48.5C130 72.5 116 85 103.5 91.25Z" stroke="white" stroke-width="8"/>
<path d="M21 5C21 2.23858 23.2386 0 26 0H90V0C90 5.52285 85.5228 10 80 10H26C23.2386 10 21 7.76142 21 5V5Z" fill="white"/>
<path d="M27 71C27 68.2386 29.2386 66 32 66H51C56.5228 66 61 70.4772 61 76V76H32C29.2386 76 27 73.7614 27 71V71Z" fill="white"/>
<path d="M0 26C0 23.2386 2.23858 21 5 21H57V30C57 30.5523 56.5523 31 56 31H5C2.23858 31 0 28.7614 0 26V26Z" fill="white"/>
<path d="M46 91C46 88.2386 48.2386 86 51 86H73C77.4183 86 81 89.5817 81 94V96H51C48.2386 96 46 93.7614 46 91V91Z" fill="white"/>
<rect x="12" y="42" width="43" height="10" rx="5" fill="white"/>
</svg>
